<?xml version="1.0" encoding="utf-8"?>
<svg version="1.1" xmlns="http://www.w3.org/2000/svg" width="40" height="32" viewBox="0 0 40 32">
<title>gp</title>
<style type="text/css">
	.st0{fill:#d5e1e1;}
</style>
<path class="st0" d="M12.997 14.256c-0.005 1.386 0 2.771 0.005 4.157 2.325 0.075 4.653 0.040 6.976 0.075-1.024 5.155-8.034 6.826-11.744 3.459-3.813-2.954-3.632-9.427 0.333-12.17 2.771-2.211 6.714-1.666 9.485 0.251 1.090-1.008 2.107-2.085 3.091-3.203-2.306-1.838-5.134-3.149-8.146-3.010-6.283-0.211-12.061 5.291-12.165 11.574-0.402 5.134 2.974 10.171 7.746 11.989 4.75 1.829 10.842 0.582 13.877-3.685 2.002-2.698 2.434-6.168 2.2-9.429-3.89-0.029-7.774-0.022-11.658-0.010zM35.717 14.237c-0.013-1.16-0.019-2.325-0.026-3.482-1.158 0-2.31 0-3.464 0-0.011 1.158-0.024 2.317-0.029 3.482-1.166 0.005-2.323 0.011-3.483 0.024 0 1.158 0 2.31 0 3.466 1.16 0.010 2.323 0.022 3.483 0.034 0.013 1.16 0.013 2.315 0.024 3.475 1.16 0 2.314 0 3.47 0 0.006-1.16 0.013-2.315 0.026-3.483 1.165-0.011 2.323-0.018 3.482-0.027 0-1.155 0-2.312 0-3.466-1.158-0.010-2.323-0.010-3.483-0.022z"></path>
</svg>
