<?xml version="1.0" encoding="utf-8"?>
<svg version="1.1" xmlns="http://www.w3.org/2000/svg" width="40" height="32" viewBox="0 0 40 32">
<title>tw</title>
<style type="text/css">
	.st0{fill:#d5e1e1;}
</style>
<path class="st0" d="M35.65 7.974c0.026 0.35 0.026 0.701 0.026 1.051 0 10.675-8.125 22.974-22.974 22.974-4.576 0-8.826-1.325-12.4-3.626 0.65 0.075 1.275 0.101 1.95 0.101 3.774 0 7.251-1.275 10.026-3.45-3.55-0.075-6.525-2.4-7.55-5.6 0.501 0.074 1 0.125 1.525 0.125 0.725 0 1.45-0.101 2.126-0.274-3.701-0.75-6.475-4-6.475-7.926 0-0.026 0-0.074 0-0.101 1.075 0.6 2.326 0.976 3.65 1.026-2.174-1.45-3.6-3.925-3.6-6.725 0-1.501 0.4-2.875 1.101-4.075 3.974 4.901 9.95 8.101 16.65 8.45-0.125-0.6-0.2-1.224-0.2-1.85 0-4.451 3.6-8.075 8.075-8.075 2.323 0 4.422 0.974 5.898 2.55 1.826-0.35 3.574-1.026 5.126-1.95-0.6 1.875-1.875 3.45-3.55 4.45 1.626-0.173 3.2-0.624 4.65-1.25-1.101 1.6-2.475 3.026-4.051 4.174z"></path>
</svg>
