<?xml version="1.0" encoding="utf-8"?>
<svg version="1.1" xmlns="http://www.w3.org/2000/svg" width="40" height="32" viewBox="0 0 40 32">
<title>wa</title>
<style type="text/css">
	.st0{fill:#d5e1e1;}
</style>
<path class="st0" d="M35.877 15.587c0 8.6-6.987 15.586-15.587 15.586-2.626 0-5.23-0.661-7.546-1.942l-8.621 2.77 2.813-8.373c-1.469-2.418-2.234-5.208-2.234-8.040 0-8.6 6.989-15.587 15.587-15.587 8.6 0 15.587 6.987 15.587 15.587zM33.272 15.587c0-7.154-5.83-12.982-12.982-12.982s-12.981 5.829-12.981 12.982c0 2.728 0.867 5.395 2.48 7.608l-1.634 4.816 5.003-1.592c2.107 1.386 4.61 2.15 7.131 2.15 7.152-0.002 12.982-5.83 12.982-12.982zM28.352 19.618c0.042 0.102 0.042 0.227 0.042 0.309 0 0.517-0.166 1.096-0.354 1.571-0.475 1.158-2.397 1.902-3.576 1.902-0.99 0-3.037-0.867-3.926-1.282-2.957-1.344-4.797-3.638-6.573-6.264-0.787-1.157-1.49-2.582-1.467-4.010v-0.165c0.040-1.365 0.538-2.336 1.528-3.267 0.31-0.29 0.64-0.454 1.075-0.454 0.248 0 0.498 0.062 0.766 0.062 0.558 0 0.661 0.166 0.869 0.702 0.144 0.35 1.198 3.163 1.198 3.37 0 0.786-1.427 1.674-1.427 2.149 0 0.102 0.040 0.206 0.102 0.31 0.454 0.971 1.323 2.088 2.109 2.832 0.95 0.909 1.965 1.509 3.12 2.088 0.146 0.082 0.291 0.144 0.456 0.144 0.619 0 1.653-2.005 2.19-2.005 0.35 0.002 3.722 1.758 3.867 2.006z"></path>
</svg>
